<svg xmlns="http://www.w3.org/2000/svg" viewBox="0 0 512 512">
<circle cx="256" cy="256" r="248" fill="#1f5e46"/>
<circle cx="256" cy="256" r="236" fill="none" stroke="#c9971c" stroke-width="5"/>
<circle cx="256" cy="256" r="226" fill="none" stroke="#c9971c" stroke-width="2" opacity="0.6"/>
<g transform="translate(66,50) scale(0.78)">
  
  <g>
    <path fill="#f7f4ee" d="
      M 148 462
      C 146 382, 158 302, 192 240
      C 208 210, 224 180, 234 150
      L 246 102
      C 248 94, 256 94, 259 102
      L 268 138
      C 273 133, 279 130, 285 130
      L 296 96
      C 299 88, 307 89, 309 97
      L 315 140
      C 338 154, 362 178, 382 208
      C 400 235, 418 266, 430 292
      C 436 305, 432 314, 421 314
      C 414 314, 406 311, 399 306
      C 390 314, 378 316, 366 312
      C 350 307, 334 296, 322 284
      C 310 286, 302 282, 296 274
      C 292 300, 293 336, 299 376
      C 304 408, 309 438, 311 462
      Z"/>
    <path fill="#c9971c" d="
      M 240 118
      C 222 158, 206 202, 194 250
      C 186 284, 178 326, 174 372
      C 187 347, 197 318, 205 288
      C 202 326, 195 366, 185 402
      C 203 375, 216 342, 224 306
      C 232 268, 238 228, 243 190
      C 246 164, 245 140, 240 118 Z" opacity="0.92"/>
    <ellipse cx="309" cy="190" rx="12" ry="14" fill="#1f5e46" transform="rotate(-12 309 190)"/>
    <circle cx="312" cy="191" r="5.5" fill="#f7f4ee"/>
    <ellipse cx="408" cy="288" rx="5.5" ry="7.5" fill="#1f5e46" transform="rotate(28 408 288)"/>
  </g>
  <path d="M 452 108 L 460 132 L 484 140 L 460 148 L 452 172 L 444 148 L 420 140 L 444 132 Z" fill="#c9971c"/>
</g>
</svg>